<?xml version="1.0" standalone="yes"?>
<svg xmlns="http://www.w3.org/2000/svg" width="281" height="162">
<path style="fill:#fa0606; stroke:none;" d="M101 52L102.5 53L103.056 53.2222L104.056 53.8056L105 54.25L107 55.3889L109 56.6111L111 57.8056L112 58.3889L114 59.6111L115 60.1944L117 61.3889L119 62.6111L121 63.75L122 64.25L124 65.3889L126 66.6111L128 67.8056L129 68.3889L131 69.6111L133 70.75L134 71.25L136 72.3889L138 73.6111L140 74.8056L141 75.3889L143 76.6111L144 77.1944L146 78.3889L148 79.6111L150 80.75L151 81.25L153 82.3889L155 83.6111L156 84.1944L158 85.3889L160 86.6111L162 87.75L163 88.25L165 89.3611L165.944 89.9167L166.944 90.3611L167.5 90.6667L169 91L168.722 92.5L168.083 94.0556L167.583 95L166.333 97L165 99L164.333 100L163.028 102L162.389 103L161.194 105L160.611 106L159.333 108L158.667 109L157.417 111L156.917 111.944L156.278 113.5L156 115L218 115L216.5 115.75L215.944 115.833L214.944 116.167L214 116.361L213 116.611L212 116.806L210 117.194L208 117.611L206 117.944L205 118.056L203 118.389L202 118.611L201 118.806L199 119.194L198 119.389L197 119.611L195 119.944L194 120.056L192 120.389L191 120.611L189 120.944L188 121.056L186 121.389L185 121.611L183 121.944L182 122.056L180 122.389L179 122.611L178 122.806L176 123.194L175 123.389L174 123.611L172 123.944L171 124.056L169 124.389L167 124.778L166 124.917L164 125.083L162 125.389L160 125.806L158 126.194L157 126.389L155 126.861L154 127.139L153 127.361L151 127.778L150 127.917L148 128.028L147 128.083L146 128.222L144 128.611L142 128.944L141 129.056L139 129.417L137 130L135 130.583L134 130.778L133 130.917L131 131L130.056 131L129.056 131L127 131L127.694 129.5L128.083 128.944L128.694 127.944L129.333 127L130.667 125L131.333 124L131.972 123L132.611 122L133.75 120L134.25 119L135.389 117L136.611 115L137.806 113L138.389 112L139.667 110L140.333 109L141.611 107L142.194 106L143.389 104L144.611 102L145.806 100L146.389 99L147.611 97L148.167 96L148.722 95L149.139 94.0556L149.722 92.5L150 91L90 91L73 91L70 91L69 91L67 91.1111L65 91.7222L63.0278 93.1111L62.0833 94.0278L60.3889 96L59.6111 97L57.9167 99L56 101L54.0833 103L53.2222 104L51.6111 106L49.9167 108L48.9722 109L47.0278 111L46.0833 112L44.3889 114L43.6111 115L41.9167 117L40.9722 118L39.0833 120L38.2222 121L36.6111 123L34.9167 125L33 127L31.0833 129L29.3889 131L28.6111 132L26.9167 134L25.9722 135L24.0278 137L23.0833 138L21.3889 140L19.7778 142L18.9167 143L17 145L16 146L14.0833 148L12.3889 150L11.6111 150.972L10.8056 151.917L9.30556 153.611L8.72222 154.333L8.11111 155.583L8 157L277 157L276.889 155.5L276.278 153.944L274.889 152L273 150L272 149L271 148L269.028 146L268.083 145L266.389 143L265.611 142L263.917 140L262.972 139L261 137L260 136L257 133L256 132L254.083 130L252.389 128L251.611 127L249.917 125L248 123L247 122L246 121L243 118L241.028 116L240.083 115L238.389 113L237.611 112L235.917 110L234.972 109L233 107L232 106L229 103L228 102L226.028 100L225.083 99L223.389 97L222.611 96L220.917 94L219.972 93L218 91L217 90L215 88L213.028 86L212.083 85L210.389 83L209.611 82L207.917 80L206.972 79L205 77L204 76L201 73L200 72L198.028 70L197.083 69L195.389 67L194.611 66L192.917 64L191.972 63L190 61L189 60L187 58L186 57L185.028 56L184.083 55.0278L183.222 54.0833L182.417 53.2222L181 51.6111L180.306 50.7778L178.778 48.9722L177.917 48L176 46L175 45L173 43L171 41L170.028 40L169.083 39L167.389 37L166.611 36L164.917 34L163.972 33L162 31L161 30L158 27L156.028 25L155.083 24L153.389 22L151.778 20L150.917 19L149 17L148 16L146 14.0278L144 12.3333L142 11.4444L141 11.4444L140 11.75L138 13.1111L137 14.0278L135 16L134 17L131 20L111 40L108 43L106 45L104.028 47L103.111 48L102.333 48.9444L101.361 50.5L101 52z"/>
</svg>
